<svg width="77" height="60" viewBox="0 0 77 60" fill="none" xmlns="http://www.w3.org/2000/svg">
<g clip-path="url(#clip0)">
<path d="M4.81044 59.895L0.546387 51.4543H3.11298L6.15206 57.83H5.46958L8.5495 51.4543H11.0403L6.77621 59.8891H4.81044V59.895Z" fill="#01B091"/>
<path d="M20.7993 59.895V51.4543H23.2726V59.8891H20.7993V59.895Z" fill="#01B091"/>
<path d="M34.1748 59.895V51.4543H36.6539V58.0925H40.6146V59.895H34.1748Z" fill="#01B091"/>
<path d="M51.0151 59.895V51.4543H53.4884V58.0925H57.4491V59.895H51.0151Z" fill="#01B091"/>
<path d="M71.7694 60C70.8011 60 69.9669 59.825 69.2611 59.4692C68.5553 59.1133 68.0128 58.6117 67.6278 57.9642C67.2487 57.3167 67.0562 56.5526 67.0562 55.6659C67.0562 54.791 67.2486 54.0268 67.6336 53.3793C68.0186 52.7319 68.5611 52.2302 69.2669 51.8802C69.9669 51.5302 70.8011 51.3552 71.7694 51.3552C72.7377 51.3552 73.566 51.5302 74.266 51.8802C74.966 52.2302 75.5026 52.7319 75.8876 53.3793C76.2668 54.0268 76.4593 54.791 76.4593 55.6659C76.4593 56.5526 76.2668 57.3167 75.8876 57.9642C75.5085 58.6117 74.966 59.1133 74.266 59.4692C73.566 59.825 72.7319 60 71.7694 60ZM71.7694 58.3084C72.4519 58.3084 73.0002 58.0867 73.4085 57.6434C73.8168 57.2001 74.021 56.5409 74.021 55.6659C74.021 54.7968 73.8168 54.1435 73.4085 53.706C73.0002 53.2685 72.4519 53.0468 71.7694 53.0468C71.0869 53.0468 70.5386 53.2627 70.1361 53.7002C69.7336 54.1376 69.5294 54.791 69.5294 55.6659C69.5294 56.5526 69.7336 57.2117 70.1361 57.6492C70.5386 58.0867 71.0811 58.3084 71.7694 58.3084Z" fill="#01B091"/>
<path d="M39.0453 0.548321L38.7828 0.408325L38.5204 0.548321L16.5293 12.3138L17.0076 13.2121L20.6417 11.2697V40.8614H56.9298V11.2697L60.5639 13.2121L61.0422 12.3138L39.0453 0.548321ZM45.3918 5.12153L28.0148 14.5771V36.0782H25.4424V13.0371L42.8019 3.7274L45.3918 5.12153ZM40.0311 9.19891L42.6736 7.75812L52.1233 13.0371V36.084H49.5509V14.5829L40.0311 9.19891ZM38.7828 13.2938L31.9872 16.9512V36.084H29.0298V15.1837L38.9928 9.7589L38.987 9.7764L48.5359 15.1779V36.084H45.5785V16.9512L38.7828 13.2938ZM44.5635 17.5578V36.0782H33.008V17.5578L38.7828 14.4488L44.5635 17.5578ZM55.909 39.8464H21.6567V10.7797L38.7828 1.56329L41.7286 3.14992L24.4216 12.4305V37.099H31.9872H45.5785H53.1441V12.4363L43.7294 7.18064L46.4593 5.69318L55.909 10.7797V39.8464Z" fill="#01B091"/>
<path d="M57.2854 41.223H20.2798V11.8705L16.8616 13.7021L16.0449 12.1738L38.7826 0L39.2143 0.233327L61.5262 12.168L60.7095 13.6963L57.2913 11.8647V41.223H57.2854ZM20.9973 40.5055H56.568V10.6689L60.412 12.728L60.552 12.4655L38.7826 0.816644L38.6951 0.863309L17.0132 12.4655L17.1532 12.728L20.9973 10.6689V40.5055ZM56.2705 40.2022H21.3006V10.5639L38.7826 1.15497L42.4867 3.14991L24.783 12.6463V36.7431H52.7881V12.6521L42.9883 7.18063L46.4591 5.29069L56.2705 10.5697V40.2022ZM22.0181 39.4847H55.553V10.9955L46.4649 6.1015L44.4758 7.18063L53.5056 12.2205V37.4548H24.0655V12.2147L40.9701 3.14991L38.7885 1.97161L22.0181 10.9955V39.4847ZM52.4847 36.4398H49.1948V14.7929L39.6226 9.37391L39.4768 9.6364L48.8973 14.9679V36.4398H45.2224V17.167L38.7885 13.7021L32.3545 17.167V36.4398H28.6796V14.9738L39.9201 8.85475L42.6792 7.3498L52.4906 12.8271V36.4398H52.4847ZM49.9123 35.7223H51.7673V13.2471L42.6734 8.16644L40.7717 9.19891L49.9123 14.3729V35.7223ZM45.9399 35.7223H48.1799V15.3879L44.925 13.5446L38.981 10.1789L29.3912 15.3996V35.7282H31.6312V16.7354L38.7826 12.8855L45.9341 16.7354V35.7223H45.9399ZM44.9191 36.4398H32.6461V17.3479L38.7826 14.0463L44.9191 17.3479V36.4398ZM33.3694 35.7223H44.2016V17.7737L38.7826 14.8571L33.3636 17.7737V35.7223H33.3694ZM28.3762 36.4398H25.0863V12.8271L42.8075 3.31907L46.1499 5.11569L28.3762 14.7929V36.4398ZM25.798 35.7223H27.6529V14.3671L44.6391 5.12152L42.8075 4.13572L25.798 13.2588V35.7223Z" fill="#01B091"/>
</g>
<defs>
<clipPath id="clip0">
<rect width="75.9071" height="60" fill="white" transform="translate(0.546387)"/>
</clipPath>
</defs>
</svg>
